<?xml version="1.0" encoding="UTF-8" standalone="no"?>
<svg
   width="1973.1222"
   height="395.25574"
   version="1.1"
   id="svg63"
   sodipodi:docname="Logo_OmicsQ.svg"
   inkscape:version="1.2.2 (b0a8486541, 2022-12-01)"
   xmlns:inkscape="http://www.inkscape.org/namespaces/inkscape"
   xmlns:sodipodi="http://sodipodi.sourceforge.net/DTD/sodipodi-0.dtd"
   xmlns:xlink="http://www.w3.org/1999/xlink"
   xmlns="http://www.w3.org/2000/svg"
   xmlns:svg="http://www.w3.org/2000/svg">
  <sodipodi:namedview
     id="namedview65"
     pagecolor="#ffffff"
     bordercolor="#666666"
     borderopacity="1.0"
     inkscape:showpageshadow="2"
     inkscape:pageopacity="0.0"
     inkscape:pagecheckerboard="0"
     inkscape:deskcolor="#d1d1d1"
     showgrid="false"
     inkscape:zoom="0.42529297"
     inkscape:cx="1202.7003"
     inkscape:cy="12.932262"
     inkscape:window-width="1870"
     inkscape:window-height="1052"
     inkscape:window-x="0"
     inkscape:window-y="0"
     inkscape:window-maximized="1"
     inkscape:current-layer="svg63" />
  <path
     fill="#33b18e"
     d="m 1923.4032,258.8224 9.282,2.474 c -0.644,1.614 -1.076,3.104 -1.372,4.818 -3.22,-0.662 -6.378,-2.336 -9.33,-3.724 -0.364,-1.714 0.334,-2.34 1.42,-3.568 z"
     id="path2"
     style="stroke-width:2" />
  <path
     fill="#f75d57"
     d="m 1513.0592,286.3084 c 1.322,2.394 9.568,8.858 12.038,10.652 -5.688,3.66 -7.588,8.424 -9.146,14.7 -3.594,-4.566 -8.514,-8.764 -13.032,-12.4 4.806,-1.45 8.346,-8.688 10.14,-12.952 z"
     id="path4"
     style="stroke-width:2" />
  <path
     fill="#ff894a"
     d="m 1567.9392,262.3904 c 3.514,4.86 7.502,8.338 13.428,9.852 -2.492,1.944 -7.228,5.294 -8.292,8.29 -8.558,7.974 -17.93,15.838 -24.228,25.78 -2.412,-4.474 -4.782,-10.742 -10.466,-11.594 6.356,-9.464 18.648,-19.878 26.616,-28.604 z"
     id="path6"
     style="stroke-width:2" />
  <path
     fill="#13d7b9"
     d="m 1945.6072,262.3904 c 12.504,-17.034 37.618,6.096 23.156,21.056 -9.93,10.268 -24.062,2.64 -27.178,-11.204 -3.304,-2.288 -6.746,-4.208 -10.272,-6.128 0.296,-1.714 0.728,-3.204 1.372,-4.818 4.456,1.228 8.334,1.342 12.922,1.094 z"
     id="path8"
     style="stroke-width:2" />
  <path
     fill="#e03442"
     d="m 1538.3812,294.7184 c 5.684,0.852 8.054,7.12 10.466,11.594 1.354,2.438 0.698,7.644 -0.032,10.186 -5.024,17.486 -29.392,15.024 -32.864,-4.838 1.558,-6.276 3.458,-11.04 9.146,-14.7 4.312,-2.252 8.552,-2.168 13.284,-2.242 z"
     id="path10"
     style="stroke-width:2" />
  <path
     fill="#13d7b9"
     d="m 1550.3032,199.6064 c 2.672,0.6 31.904,33.272 35.524,38.466 -12.748,2.848 -21.902,10.2 -17.888,24.318 l -2.942,3.724 c -6.65,-7.958 -13.814,-55.876 -14.694,-66.508 z"
     id="path12"
     style="stroke-width:2" />
  <path
     fill="#e03442"
     d="m 1502.9192,299.2604 c -28.454,9.014 -30.424,-36.054 -5.854,-33.658 10.79,1.052 17.034,10.35 15.994,20.706 -1.794,4.264 -5.334,11.502 -10.14,12.952 z"
     id="path14"
     style="stroke-width:2" />
  <path
     fill="#39467c"
     d="m 1897.9712,306.3124 26.834,27.486 c 13.254,13.462 39.388,33.732 17.204,54.388 -23.348,21.742 -45.996,-12.28 -60.06,-26.698 -6.106,-6.26 -12.97,-11.894 -18.65,-18.552 l -0.484,-0.57 c 5.282,-6.566 28.696,-29.978 35.156,-36.054 z"
     id="path16"
     style="stroke-width:2" />
  <path
     fill="#895c99"
     d="m 1550.3032,199.6064 c -0.464,-4.42 -0.054,-9.076 -0.022,-13.526 1.148,-158.950005 189.238,-241.740805 308.636,-144.092005 64.488,52.74 93.362,137.554005 64.486,216.834005 -1.086,1.228 -1.784,1.854 -1.42,3.568 -5.616,15.828 -13.794,30.592 -24.012,43.922 -6.46,6.076 -29.874,29.488 -35.156,36.054 -7.768,5.552 -15.12,11.568 -23.222,16.656 -69.6,43.7 -167.69,31.64 -225.488,-26.848 -13.768,-12.518 -32.73,-35.128 -41.03,-51.642 1.064,-2.996 5.8,-6.346 8.292,-8.29 -5.926,-1.514 -9.914,-4.992 -13.428,-9.852 -4.014,-14.118 5.14,-21.47 17.888,-24.318 -3.62,-5.194 -32.852,-37.866 -35.524,-38.466 z m 306.52,-67.918 c -0.546,9.038 -11.816,16.984 -17.672,22.942 -13.178,13.41 -29.228,28.074 -41.552,41.688 -6.54,-2.772 -10.9,-2.042 -17.508,0 -2.36,-3.554 -6.156,-5.706 -8.652,-9.094 -3.256,3.376 -6.11,6.9 -9.596,10.09 -3.858,1.52 -7.934,1.042 -11.554,2.292 -5.486,-1.868 -9.668,-4.832 -12.616,-9.908 -11.41,8.916 -19.474,22.308 -31.302,30.75 -3.66,-1.436 -5.932,-1.23 -9.65,0 -5.792,1.064 -10.052,5.846 -10.706,11.614 -2.806,-4.728 -22.786,-23.42 -27.714,-26.73 -3.242,-0.47 -6.708,-0.866 -9.912,0 -5.422,-2.006 -8.78,-4.586 -12.474,-9.014 -4.734,2.634 -18.476,15.718 -21.81,20.212 -2.142,5.542 -20.448,23.872 -23.918,24.104 -1.506,-0.794 -2.94,-1.626 -4.36,-2.562 -12.748,2.848 -21.902,10.2 -17.888,24.318 3.514,4.86 7.502,8.338 13.428,9.852 -2.492,1.944 -7.228,5.294 -8.292,8.29 8.3,16.514 27.262,39.124 41.03,51.642 17.072,-5.64 53.054,-20.99 68.656,-23.11 1.32,-0.18 2.102,-0.356 3.254,-1.028 26.65,17.868 65.94,21.616 96.144,12.362 69.238,-21.212 106.158,-101.676 85.15,-169.83 8.572,1.024 17.266,-0.83 20.992,-9.61 8.578,-20.22 -23.27,-34.33 -31.478,-9.27 z m -242.718,82.776 v 2.066 c 3.334,-4.494 17.076,-17.578 21.81,-20.212 3.694,4.428 7.052,7.008 12.474,9.014 3.204,-0.866 6.67,-0.47 9.912,0 4.928,3.31 24.908,22.002 27.714,26.73 0.654,-5.768 4.914,-10.55 10.706,-11.614 3.718,-1.23 5.99,-1.436 9.65,0 11.828,-8.442 19.892,-21.834 31.302,-30.75 2.948,5.076 7.13,8.04 12.616,9.908 3.62,-1.25 7.696,-0.772 11.554,-2.292 3.486,-3.19 6.34,-6.714 9.596,-10.09 2.496,3.388 6.292,5.54 8.652,9.094 6.608,-2.042 10.968,-2.772 17.508,0 12.324,-13.614 28.374,-28.278 41.552,-41.688 5.856,-5.958 17.126,-13.904 17.672,-22.942 -85.828,-146.096805 -272.852,-50.470005 -242.718,82.776 z"
     id="path30"
     style="stroke-width:2" />
  <path
     fill="#306eb1"
     d="m 1590.1872,240.6344 c 3.196,-8.316 16.04,-21.076 23.918,-26.17 v 2.066 c -2.142,5.542 -20.448,23.872 -23.918,24.104 z"
     id="path32"
     style="stroke-width:2" />
  <path
     fill="#74ebf1"
     d="m 1892.7372,234.6884 c 11.764,-0.718 17.926,6.536 18.99,17.812 -2.66,6.458 -6.856,11.496 -13.756,13.614 -19.242,0.692 -24.74,-25.978 -5.234,-31.426 z"
     id="path34"
     style="stroke-width:2" />
  <path
     fill="#f75d57"
     d="m 1658.3012,205.3324 c 3.772,-3.814 6.77,-7.954 10.236,-11.99 10.302,6.994 20.198,22.468 28.184,27.106 -5.792,1.064 -10.052,5.846 -10.706,11.614 -2.806,-4.728 -22.786,-23.42 -27.714,-26.73 z"
     id="path36"
     style="stroke-width:2" />
  <path
     fill="#e03442"
     d="m 1635.9152,196.3184 c -11.042,-38.466 42.478,-31.094 32.622,-2.976 -3.466,4.036 -6.464,8.176 -10.236,11.99 -3.242,-0.47 -6.708,-0.866 -9.912,0 -5.422,-2.006 -8.78,-4.586 -12.474,-9.014 z"
     id="path38"
     style="stroke-width:2" />
  <path
     fill="#e03442"
     d="m 1737.6732,189.6984 c -14.242,-28.35 38.646,-39.396 33.766,-2.474 -3.256,3.376 -6.11,6.9 -9.596,10.09 -3.858,1.52 -7.934,1.042 -11.554,2.292 -5.486,-1.868 -9.668,-4.832 -12.616,-9.908 z"
     id="path40"
     style="stroke-width:2" />
  <path
     fill="#f75d57"
     d="m 1737.6732,189.6984 c 2.948,5.076 7.13,8.04 12.616,9.908 -11.22,10.012 -21.528,21.444 -31.766,32.456 -2.128,-6.454 -5.91,-9.052 -12.152,-11.614 11.828,-8.442 19.892,-21.834 31.302,-30.75 z"
     id="path42"
     style="stroke-width:2" />
  <path
     fill="#e03442"
     d="m 1696.7212,220.4484 c 3.718,-1.23 5.99,-1.436 9.65,0 6.242,2.562 10.024,5.16 12.152,11.614 9.53,28.13 -43.122,29.642 -32.508,0 0.654,-5.768 4.914,-10.55 10.706,-11.614 z"
     id="path44"
     style="stroke-width:2" />
  <path
     fill="#306eb1"
     d="m 1771.4392,187.2244 c 2.496,3.388 6.292,5.54 8.652,9.094 6.608,-2.042 10.968,-2.772 17.508,0 5.1,4.118 7.418,7.226 8.596,13.852 -4,21.862 -27.318,25.32 -34.756,-1.86 -3.84,-2.97 -6.604,-7.22 -9.596,-10.996 3.486,-3.19 6.34,-6.714 9.596,-10.09 z"
     id="path46"
     style="stroke-width:2" />
  <path
     fill="#f75d57"
     d="m 1771.4392,187.2244 c 2.496,3.388 6.292,5.54 8.652,9.094 -3.98,2.746 -7.674,7.162 -8.652,11.992 -3.84,-2.97 -6.604,-7.22 -9.596,-10.996 3.486,-3.19 6.34,-6.714 9.596,-10.09 z"
     id="path48"
     style="stroke-width:2" />
  <path
     fill="#f7d15d"
     d="m 1856.8232,131.6884 c 8.208,-25.06 40.056,-10.95 31.478,9.27 -3.726,8.78 -12.42,10.634 -20.992,9.61 -6.652,4.614 -12.46,11.38 -18.192,17.116 l -22.31,22.292 c -6.72,6.836 -13.338,13.932 -20.612,20.194 -1.178,-6.626 -3.496,-9.734 -8.596,-13.852 12.324,-13.614 28.374,-28.278 41.552,-41.688 5.856,-5.958 17.126,-13.904 17.672,-22.942 z"
     id="path50"
     style="stroke-width:2" />
  <path
     fill="#13d7b9"
     d="m 1635.9152,196.3184 c 3.694,4.428 7.052,7.008 12.474,9.014 l -16.446,16.512 c -2.6,2.606 -5.564,5.164 -7.96,7.936 3.87,4.956 4.694,11.506 7.354,17.076 11.44,23.956 29.538,49.92 54.678,61.18 -1.152,0.672 -1.934,0.848 -3.254,1.028 -15.602,2.12 -51.584,17.47 -68.656,23.11 -13.768,-12.518 -32.73,-35.128 -41.03,-51.642 1.064,-2.996 5.8,-6.346 8.292,-8.29 -5.926,-1.514 -9.914,-4.992 -13.428,-9.852 -4.014,-14.118 5.14,-21.47 17.888,-24.318 1.42,0.936 2.854,1.768 4.36,2.562 3.47,-0.232 21.776,-18.562 23.918,-24.104 3.334,-4.494 17.076,-17.578 21.81,-20.212 z"
     id="path52"
     style="stroke-width:2" />
  <defs
     id="defs59">
    <linearGradient
       id="gradient_0"
       gradientUnits="userSpaceOnUse"
       x1="204.44089"
       y1="197.87027"
       x2="164.4519"
       y2="223.67546">
      <stop
         offset="0"
         stop-color="#FFB53C"
         id="stop54" />
      <stop
         offset="1"
         stop-color="#FFE879"
         id="stop56" />
    </linearGradient>
    <linearGradient
       inkscape:collect="always"
       xlink:href="#gradient_0"
       id="linearGradient1189"
       gradientUnits="userSpaceOnUse"
       x1="204.44089"
       y1="197.87027"
       x2="164.4519"
       y2="223.67546"
       gradientTransform="matrix(2,0,0,2,-1480,0)" />
    <linearGradient
       inkscape:collect="always"
       xlink:href="#gradient_0"
       id="linearGradient1577"
       gradientUnits="userSpaceOnUse"
       x1="204.44089"
       y1="197.87027"
       x2="164.4519"
       y2="223.67546"
       gradientTransform="matrix(2,0,0,2,1239.8132,-185.3616)" />
  </defs>
  <path
     fill="url(#gradient_0)"
     d="m 1635.9152,196.3184 c 3.694,4.428 7.052,7.008 12.474,9.014 l -16.446,16.512 c -2.6,2.606 -5.564,5.164 -7.96,7.936 -7.758,6.092 -16.928,13.252 -23.172,20.904 0.12,10.984 -6.604,25.97 -19.444,21.558 -5.926,-1.514 -9.914,-4.992 -13.428,-9.852 -4.014,-14.118 5.14,-21.47 17.888,-24.318 1.42,0.936 2.854,1.768 4.36,2.562 3.47,-0.232 21.776,-18.562 23.918,-24.104 3.334,-4.494 17.076,-17.578 21.81,-20.212 z"
     id="path61"
     style="fill:url(#linearGradient1577);stroke-width:2" />
  <text
     xml:space="preserve"
     style="font-weight:bold;font-size:463.637px;line-height:1.25;font-family:Cantarell;-inkscape-font-specification:'Cantarell Bold';fill:#895c99;fill-opacity:1;stroke-width:1.39091"
     x="487.23083"
     y="354.15738"
     id="text402"><tspan
       sodipodi:role="line"
       id="tspan400"
       x="487.23083"
       y="354.15738"
       style="stroke-width:1.39091">mics</tspan></text>
  <g
     id="g1211"
     transform="translate(1239.8132,-185.3616)">
    <path
       fill="#33b18e"
       d="m -796.41,444.184 9.282,2.474 c -0.644,1.614 -1.076,3.104 -1.372,4.818 -3.22,-0.662 -6.378,-2.336 -9.33,-3.724 -0.364,-1.714 0.334,-2.34 1.42,-3.568 z"
       id="path1085"
       style="stroke-width:2" />
    <path
       fill="#f75d57"
       d="m -1206.754,471.67 c 1.322,2.394 9.568,8.858 12.038,10.652 -5.688,3.66 -7.588,8.424 -9.146,14.7 -3.594,-4.566 -8.514,-8.764 -13.032,-12.4 4.806,-1.45 8.346,-8.688 10.14,-12.952 z"
       id="path1087"
       style="stroke-width:2" />
    <path
       fill="#ff894a"
       d="m -1151.874,447.752 c 3.514,4.86 7.502,8.338 13.428,9.852 -2.492,1.944 -7.228,5.294 -8.292,8.29 -8.558,7.974 -17.93,15.838 -24.228,25.78 -2.412,-4.474 -4.782,-10.742 -10.466,-11.594 6.356,-9.464 18.648,-19.878 26.616,-28.604 z"
       id="path1089"
       style="stroke-width:2" />
    <path
       fill="#13d7b9"
       d="m -774.206,447.752 c 12.504,-17.034 37.618,6.096 23.156,21.056 -9.93,10.268 -24.062,2.64 -27.178,-11.204 -3.304,-2.288 -6.746,-4.208 -10.272,-6.128 0.296,-1.714 0.728,-3.204 1.372,-4.818 4.456,1.228 8.334,1.342 12.922,1.094 z"
       id="path1091"
       style="stroke-width:2" />
    <path
       fill="#e03442"
       d="m -1181.432,480.08 c 5.684,0.852 8.054,7.12 10.466,11.594 1.354,2.438 0.698,7.644 -0.032,10.186 -5.024,17.486 -29.392,15.024 -32.864,-4.838 1.558,-6.276 3.458,-11.04 9.146,-14.7 4.312,-2.252 8.552,-2.168 13.284,-2.242 z"
       id="path1093"
       style="stroke-width:2" />
    <path
       fill="#13d7b9"
       d="m -1169.51,384.968 c 2.672,0.6 31.904,33.272 35.524,38.466 -12.748,2.848 -21.902,10.2 -17.888,24.318 l -2.942,3.724 c -6.65,-7.958 -13.814,-55.876 -14.694,-66.508 z"
       id="path1095"
       style="stroke-width:2" />
    <path
       fill="#e03442"
       d="m -1216.894,484.622 c -28.454,9.014 -30.424,-36.054 -5.854,-33.658 10.79,1.052 17.034,10.35 15.994,20.706 -1.794,4.264 -5.334,11.502 -10.14,12.952 z"
       id="path1097"
       style="stroke-width:2" />
    <path
       fill="#895c99"
       d="m -1169.51,384.968 c -0.464,-4.42 -0.054,-9.076 -0.022,-13.526 1.148,-158.95 189.238,-241.7408 308.636,-144.092 64.488,52.74 93.362,137.554 64.486,216.834 -1.086,1.228 -1.784,1.854 -1.42,3.568 -5.616,15.828 -13.794,30.592 -24.012,43.922 -6.46,6.076 -29.874,29.488 -35.156,36.054 -7.768,5.552 -15.12,11.568 -23.222,16.656 -69.6,43.7 -167.69,31.64 -225.488,-26.848 -13.768,-12.518 -32.73,-35.128 -41.03,-51.642 1.064,-2.996 5.8,-6.346 8.292,-8.29 -5.926,-1.514 -9.914,-4.992 -13.428,-9.852 -4.014,-14.118 5.14,-21.47 17.888,-24.318 -3.62,-5.194 -32.852,-37.866 -35.524,-38.466 z m 306.52,-67.918 c -0.546,9.038 -11.816,16.984 -17.672,22.942 -13.178,13.41 -29.228,28.074 -41.552,41.688 -6.54,-2.772 -10.9,-2.042 -17.508,0 -2.36,-3.554 -6.156,-5.706 -8.652,-9.094 -3.256,3.376 -6.11,6.9 -9.596,10.09 -3.858,1.52 -7.934,1.042 -11.554,2.292 -5.486,-1.868 -9.668,-4.832 -12.616,-9.908 -11.41,8.916 -19.474,22.308 -31.302,30.75 -3.66,-1.436 -5.932,-1.23 -9.65,0 -5.792,1.064 -10.052,5.846 -10.706,11.614 -2.806,-4.728 -22.786,-23.42 -27.714,-26.73 -3.242,-0.47 -6.708,-0.866 -9.912,0 -5.422,-2.006 -8.78,-4.586 -12.474,-9.014 -4.734,2.634 -18.476,15.718 -21.81,20.212 -2.142,5.542 -20.448,23.872 -23.918,24.104 -1.506,-0.794 -2.94,-1.626 -4.36,-2.562 -12.748,2.848 -21.902,10.2 -17.888,24.318 3.514,4.86 7.502,8.338 13.428,9.852 -2.492,1.944 -7.228,5.294 -8.292,8.29 8.3,16.514 27.262,39.124 41.03,51.642 17.072,-5.64 53.054,-20.99 68.656,-23.11 1.32,-0.18 2.102,-0.356 3.254,-1.028 26.65,17.868 65.94,21.616 96.144,12.362 69.238,-21.212 106.158,-101.676 85.15,-169.83 8.572,1.024 17.266,-0.83 20.992,-9.61 8.578,-20.22 -23.27,-34.33 -31.478,-9.27 z m -242.718,82.776 v 2.066 c 3.334,-4.494 17.076,-17.578 21.81,-20.212 3.694,4.428 7.052,7.008 12.474,9.014 3.204,-0.866 6.67,-0.47 9.912,0 4.928,3.31 24.908,22.002 27.714,26.73 0.654,-5.768 4.914,-10.55 10.706,-11.614 3.718,-1.23 5.99,-1.436 9.65,0 11.828,-8.442 19.892,-21.834 31.302,-30.75 2.948,5.076 7.13,8.04 12.616,9.908 3.62,-1.25 7.696,-0.772 11.554,-2.292 3.486,-3.19 6.34,-6.714 9.596,-10.09 2.496,3.388 6.292,5.54 8.652,9.094 6.608,-2.042 10.968,-2.772 17.508,0 12.324,-13.614 28.374,-28.278 41.552,-41.688 5.856,-5.958 17.126,-13.904 17.672,-22.942 -85.828,-146.0968 -272.852,-50.47 -242.718,82.776 z"
       id="path1099"
       style="stroke-width:2" />
    <path
       fill="#306eb1"
       d="m -1129.626,425.996 c 3.196,-8.316 16.04,-21.076 23.918,-26.17 v 2.066 c -2.142,5.542 -20.448,23.872 -23.918,24.104 z"
       id="path1101"
       style="stroke-width:2" />
    <path
       fill="#74ebf1"
       d="m -827.076,420.05 c 11.764,-0.718 17.926,6.536 18.99,17.812 -2.66,6.458 -6.856,11.496 -13.756,13.614 -19.242,0.692 -24.74,-25.978 -5.234,-31.426 z"
       id="path1103"
       style="stroke-width:2" />
    <path
       fill="#f75d57"
       d="m -1061.512,390.694 c 3.772,-3.814 6.77,-7.954 10.236,-11.99 10.302,6.994 20.198,22.468 28.184,27.106 -5.792,1.064 -10.052,5.846 -10.706,11.614 -2.806,-4.728 -22.786,-23.42 -27.714,-26.73 z"
       id="path1105"
       style="stroke-width:2" />
    <path
       fill="#e03442"
       d="m -1083.898,381.68 c -11.042,-38.466 42.478,-31.094 32.622,-2.976 -3.466,4.036 -6.464,8.176 -10.236,11.99 -3.242,-0.47 -6.708,-0.866 -9.912,0 -5.422,-2.006 -8.78,-4.586 -12.474,-9.014 z"
       id="path1107"
       style="stroke-width:2" />
    <path
       fill="#e03442"
       d="m -982.14,375.06 c -14.242,-28.35 38.646,-39.396 33.766,-2.474 -3.256,3.376 -6.11,6.9 -9.596,10.09 -3.858,1.52 -7.934,1.042 -11.554,2.292 -5.486,-1.868 -9.668,-4.832 -12.616,-9.908 z"
       id="path1109"
       style="stroke-width:2" />
    <path
       fill="#f75d57"
       d="m -982.14,375.06 c 2.948,5.076 7.13,8.04 12.616,9.908 -11.22,10.012 -21.528,21.444 -31.766,32.456 -2.128,-6.454 -5.91,-9.052 -12.152,-11.614 11.828,-8.442 19.892,-21.834 31.302,-30.75 z"
       id="path1111"
       style="stroke-width:2" />
    <path
       fill="#e03442"
       d="m -1023.092,405.81 c 3.718,-1.23 5.99,-1.436 9.65,0 6.242,2.562 10.024,5.16 12.152,11.614 9.53,28.13 -43.122,29.642 -32.508,0 0.654,-5.768 4.914,-10.55 10.706,-11.614 z"
       id="path1113"
       style="stroke-width:2" />
    <path
       fill="#306eb1"
       d="m -948.374,372.586 c 2.496,3.388 6.292,5.54 8.652,9.094 6.608,-2.042 10.968,-2.772 17.508,0 5.1,4.118 7.418,7.226 8.596,13.852 -4,21.862 -27.318,25.32 -34.756,-1.86 -3.84,-2.97 -6.604,-7.22 -9.596,-10.996 3.486,-3.19 6.34,-6.714 9.596,-10.09 z"
       id="path1115"
       style="stroke-width:2" />
    <path
       fill="#f75d57"
       d="m -948.374,372.586 c 2.496,3.388 6.292,5.54 8.652,9.094 -3.98,2.746 -7.674,7.162 -8.652,11.992 -3.84,-2.97 -6.604,-7.22 -9.596,-10.996 3.486,-3.19 6.34,-6.714 9.596,-10.09 z"
       id="path1117"
       style="stroke-width:2" />
    <path
       fill="#f7d15d"
       d="m -862.99,317.05 c 8.208,-25.06 40.056,-10.95 31.478,9.27 -3.726,8.78 -12.42,10.634 -20.992,9.61 -6.652,4.614 -12.46,11.38 -18.192,17.116 l -22.31,22.292 c -6.72,6.836 -13.338,13.932 -20.612,20.194 -1.178,-6.626 -3.496,-9.734 -8.596,-13.852 12.324,-13.614 28.374,-28.278 41.552,-41.688 5.856,-5.958 17.126,-13.904 17.672,-22.942 z"
       id="path1119"
       style="stroke-width:2" />
    <path
       fill="#13d7b9"
       d="m -1083.898,381.68 c 3.694,4.428 7.052,7.008 12.474,9.014 l -16.446,16.512 c -2.6,2.606 -5.564,5.164 -7.96,7.936 3.87,4.956 4.694,11.506 7.354,17.076 11.44,23.956 29.538,49.92 54.678,61.18 -1.152,0.672 -1.934,0.848 -3.254,1.028 -15.602,2.12 -51.584,17.47 -68.656,23.11 -13.768,-12.518 -32.73,-35.128 -41.03,-51.642 1.064,-2.996 5.8,-6.346 8.292,-8.29 -5.926,-1.514 -9.914,-4.992 -13.428,-9.852 -4.014,-14.118 5.14,-21.47 17.888,-24.318 1.42,0.936 2.854,1.768 4.36,2.562 3.47,-0.232 21.776,-18.562 23.918,-24.104 3.334,-4.494 17.076,-17.578 21.81,-20.212 z"
       id="path1121"
       style="stroke-width:2" />
    <path
       fill="url(#gradient_0)"
       d="m -1083.898,381.68 c 3.694,4.428 7.052,7.008 12.474,9.014 l -16.446,16.512 c -2.6,2.606 -5.564,5.164 -7.96,7.936 -7.758,6.092 -16.928,13.252 -23.172,20.904 0.12,10.984 -6.604,25.97 -19.444,21.558 -5.926,-1.514 -9.914,-4.992 -13.428,-9.852 -4.014,-14.118 5.14,-21.47 17.888,-24.318 1.42,0.936 2.854,1.768 4.36,2.562 3.47,-0.232 21.776,-18.562 23.918,-24.104 3.334,-4.494 17.076,-17.578 21.81,-20.212 z"
       id="path1123"
       style="fill:url(#linearGradient1189);stroke-width:2" />
  </g>
</svg>
