<?xml version="1.0" encoding="UTF-8" standalone="no"?>
<svg
   width="197.31219"
   height="39.526001"
   version="1.1"
   id="svg63"
   sodipodi:docname="Background.svg"
   inkscape:version="1.2.2 (b0a8486541, 2022-12-01)"
   inkscape:export-filename="Background.png"
   inkscape:export-xdpi="300"
   inkscape:export-ydpi="300"
   xmlns:inkscape="http://www.inkscape.org/namespaces/inkscape"
   xmlns:sodipodi="http://sodipodi.sourceforge.net/DTD/sodipodi-0.dtd"
   xmlns:xlink="http://www.w3.org/1999/xlink"
   xmlns="http://www.w3.org/2000/svg"
   xmlns:svg="http://www.w3.org/2000/svg">
  <sodipodi:namedview
     id="namedview65"
     pagecolor="#ffffff"
     bordercolor="#666666"
     borderopacity="1.0"
     inkscape:showpageshadow="2"
     inkscape:pageopacity="0.0"
     inkscape:pagecheckerboard="0"
     inkscape:deskcolor="#d1d1d1"
     showgrid="false"
     inkscape:zoom="3.4023438"
     inkscape:cx="154.3054"
     inkscape:cy="-21.30884"
     inkscape:window-width="1870"
     inkscape:window-height="1052"
     inkscape:window-x="0"
     inkscape:window-y="0"
     inkscape:window-maximized="1"
     inkscape:current-layer="svg63" />
  <path
     fill="#33b18e"
     d="m 186.87256,25.146476 0.90181,0.240367 c -0.0626,0.156812 -0.1045,0.301576 -0.13329,0.468103 -0.31285,-0.06432 -0.61967,-0.226959 -0.90648,-0.361813 -0.0354,-0.166528 0.0324,-0.227348 0.13796,-0.346657 z"
     id="path2"
     style="opacity:0.284946;stroke-width:0.194314" />
  <path
     fill="#f75d57"
     d="m 147.00466,27.81694 c 0.12844,0.232595 0.92961,0.860619 1.16958,1.034919 -0.55263,0.355596 -0.73723,0.818453 -0.8886,1.428212 -0.34918,-0.44362 -0.8272,-0.851486 -1.26615,-1.204749 0.46693,-0.140879 0.81087,-0.844103 0.98517,-1.258382 z"
     id="path4"
     style="opacity:0.284946;stroke-width:0.194314" />
  <path
     fill="#ff894a"
     d="m 152.33665,25.493133 c 0.34141,0.472184 0.72888,0.810097 1.30463,0.957193 -0.24211,0.188874 -0.70225,0.514351 -0.80563,0.805434 -0.83147,0.774732 -1.74203,1.538776 -2.35392,2.504714 -0.23435,-0.434682 -0.46461,-1.043664 -1.01685,-1.126442 0.61753,-0.919496 1.81179,-1.931291 2.58593,-2.779086 z"
     id="path6"
     style="opacity:0.284946;stroke-width:0.194314" />
  <path
     fill="#13d7b9"
     d="m 189.02984,25.493133 c 1.21486,-1.654977 3.65487,0.592271 2.24978,2.045743 -0.96477,0.997611 -2.3378,0.256495 -2.64054,-1.08855 -0.32101,-0.222296 -0.65542,-0.408838 -0.998,-0.59538 0.0287,-0.166527 0.0707,-0.311291 0.13329,-0.468103 0.43294,0.119308 0.80971,0.130385 1.25547,0.10629 z"
     id="path8"
     style="opacity:0.284946;stroke-width:0.194314" />
  <path
     fill="#e03442"
     d="m 149.46488,28.634032 c 0.55224,0.08278 0.7825,0.69176 1.01685,1.126442 0.13154,0.236869 0.0678,0.74267 -0.003,0.989644 -0.48813,1.698892 -2.85565,1.459691 -3.19298,-0.470047 0.15137,-0.609759 0.33596,-1.072616 0.8886,-1.428212 0.41894,-0.218798 0.83089,-0.210637 1.29064,-0.217827 z"
     id="path10"
     style="opacity:0.284946;stroke-width:0.194314" />
  <path
     fill="#13d7b9"
     d="m 150.62319,19.393212 c 0.25961,0.0583 3.0997,3.232616 3.45141,3.73725 -1.23856,0.276704 -2.12793,0.991005 -1.73795,2.362671 l -0.28584,0.361813 c -0.64609,-0.773177 -1.34213,-5.428759 -1.42762,-6.461734 z"
     id="path12"
     style="opacity:0.284946;stroke-width:0.194314" />
  <path
     fill="#e03442"
     d="m 146.01949,29.075322 c -2.76451,0.875775 -2.95591,-3.502909 -0.56876,-3.27012 1.04833,0.102204 1.65497,1.005577 1.55393,2.011738 -0.1743,0.414279 -0.51824,1.117503 -0.98517,1.258382 z"
     id="path14"
     style="opacity:0.284946;stroke-width:0.194314" />
  <path
     fill="#39467c"
     d="m 184.40166,29.760474 2.60712,2.670465 c 1.28772,1.30793 3.82682,3.277308 1.67149,5.284189 -2.26843,2.112393 -4.46885,-1.193092 -5.83526,-2.593905 -0.59325,-0.608204 -1.26013,-1.155588 -1.81198,-1.802461 l -0.047,-0.05538 c 0.51318,-0.637934 2.78802,-2.912581 3.41566,-3.502908 z"
     id="path16"
     style="opacity:0.284946;stroke-width:0.194314" />
  <path
     fill="#895c99"
     d="m 150.62319,19.393212 c -0.0451,-0.429435 -0.005,-0.8818 -0.002,-1.31415 0.11154,-15.4431473 18.38585,-23.4868748 29.98623,-13.9995847 6.26547,5.124074 9.0708,13.3643707 6.26528,21.0669987 -0.10556,0.119309 -0.17333,0.180129 -0.13796,0.346657 -0.54564,1.537805 -1.34019,2.972235 -2.33294,4.267341 -0.62764,0.590327 -2.90248,2.864974 -3.41566,3.502908 -0.75472,0.539417 -1.46902,1.123916 -2.25619,1.618251 -6.76214,4.245773 -16.2923,3.074056 -21.9078,-2.608478 -1.33766,-1.216214 -3.17995,-3.41294 -3.98636,-5.017395 0.10335,-0.291083 0.56352,-0.61656 0.80563,-0.805434 -0.57575,-0.147096 -0.96322,-0.485009 -1.30463,-0.957193 -0.38998,-1.371666 0.49939,-2.085967 1.73795,-2.362671 -0.35171,-0.504634 -3.1918,-3.678956 -3.45141,-3.73725 z m 29.78064,-6.598728 c -0.053,0.878107 -1.14801,1.650119 -1.71696,2.228982 -1.28034,1.302879 -2.83971,2.727593 -4.03708,4.050292 -0.6354,-0.26932 -1.05901,-0.198395 -1.70103,0 -0.22929,-0.345297 -0.5981,-0.554379 -0.8406,-0.883548 -0.31635,0.328003 -0.59364,0.670385 -0.93232,0.980317 -0.37484,0.147679 -0.77085,0.101243 -1.12256,0.222685 -0.533,-0.18149 -0.93932,-0.469464 -1.22574,-0.962635 -1.10856,0.866254 -1.89203,2.167384 -3.04121,2.987586 -0.3556,-0.139518 -0.57634,-0.119504 -0.93757,0 -0.56274,0.103377 -0.97663,0.567982 -1.04017,1.128384 -0.27262,-0.459359 -2.21383,-2.275423 -2.69261,-2.597013 -0.31499,-0.04566 -0.65173,-0.08413 -0.96302,0 -0.52679,-0.194898 -0.85305,-0.445564 -1.21195,-0.875776 -0.45994,0.255912 -1.79507,1.527118 -2.119,1.963743 -0.2081,0.538445 -1.98666,2.319338 -2.32381,2.341878 -0.14631,-0.07714 -0.28563,-0.157977 -0.4236,-0.248917 -1.23856,0.276704 -2.12793,0.991005 -1.73795,2.362671 0.34141,0.472184 0.72888,0.810097 1.30463,0.957193 -0.24211,0.188874 -0.70225,0.514351 -0.80563,0.805434 0.80641,1.604455 2.6487,3.801181 3.98636,5.017395 1.65868,-0.547966 5.15458,-2.039331 6.67044,-2.245305 0.12824,-0.01749 0.20422,-0.03459 0.31614,-0.09988 2.58924,1.736006 6.40655,2.100151 9.3411,1.201058 6.72696,-2.060899 10.31401,-9.878562 8.27293,-16.500218 0.83283,0.09949 1.67752,-0.08064 2.03953,-0.933681 0.83342,-1.96452 -2.26085,-3.335409 -3.05832,-0.900648 z m -23.58182,8.04229 v 0.200727 c 0.32393,-0.436625 1.65906,-1.707831 2.119,-1.963743 0.3589,0.430212 0.68516,0.680878 1.21195,0.875776 0.31129,-0.08413 0.64803,-0.04566 0.96302,0 0.47878,0.32159 2.41999,2.137654 2.69261,2.597013 0.0635,-0.560402 0.47743,-1.025009 1.04017,-1.128384 0.36123,-0.119504 0.58197,-0.139518 0.93757,0 1.14918,-0.820202 1.93265,-2.121332 3.04121,-2.987586 0.28642,0.493171 0.69274,0.781145 1.22574,0.962635 0.35171,-0.121447 0.74772,-0.075 1.12256,-0.222685 0.33868,-0.309932 0.61597,-0.652314 0.93232,-0.980317 0.2425,0.329169 0.61131,0.538251 0.8406,0.883548 0.64202,-0.198395 1.06563,-0.26932 1.70103,0 1.19737,-1.322699 2.75674,-2.747413 4.03708,-4.050292 0.56895,-0.578863 1.66392,-1.350875 1.71696,-2.228982 -8.33881,-14.1943654 -26.50955,-4.9035273 -23.58182,8.04229 z"
     id="path30"
     style="opacity:0.284946;stroke-width:0.194314" />
  <path
     fill="#306eb1"
     d="m 154.4982,23.379379 c 0.31053,-0.80796 1.55841,-2.047686 2.32381,-2.542605 v 0.200727 c -0.2081,0.538445 -1.98666,2.319338 -2.32381,2.341878 z"
     id="path32"
     style="opacity:0.284946;stroke-width:0.194314" />
  <path
     fill="#74ebf1"
     d="m 183.89314,22.801682 c 1.14296,-0.06976 1.74164,0.63502 1.84502,1.730566 -0.25844,0.627441 -0.66612,1.116919 -1.3365,1.322698 -1.8695,0.06723 -2.40367,-2.523951 -0.50852,-3.053264 z"
     id="path34"
     style="opacity:0.284946;stroke-width:0.194314" />
  <path
     fill="#f75d57"
     d="m 161.11598,19.949534 c 0.36648,-0.370558 0.65775,-0.772789 0.9945,-1.164916 1.00092,0.679519 1.96238,2.182929 2.73828,2.633545 -0.56274,0.103377 -0.97663,0.567982 -1.04017,1.128384 -0.27262,-0.459359 -2.21383,-2.275423 -2.69261,-2.597013 z"
     id="path36"
     style="opacity:0.284946;stroke-width:0.194314" />
  <path
     fill="#e03442"
     d="m 158.94101,19.073758 c -1.07281,-3.737251 4.12705,-3.021008 3.16947,-0.28914 -0.33675,0.392127 -0.62802,0.794358 -0.9945,1.164916 -0.31499,-0.04566 -0.65173,-0.08413 -0.96302,0 -0.52679,-0.194898 -0.85305,-0.445564 -1.21195,-0.875776 z"
     id="path38"
     style="opacity:0.284946;stroke-width:0.194314" />
  <path
     fill="#e03442"
     d="m 168.82754,18.430577 c -1.38371,-2.754408 3.75475,-3.827608 3.28062,-0.240367 -0.31635,0.328003 -0.59364,0.670385 -0.93232,0.980317 -0.37484,0.147679 -0.77085,0.101243 -1.12256,0.222685 -0.533,-0.18149 -0.93932,-0.469464 -1.22574,-0.962635 z"
     id="path40"
     style="opacity:0.284946;stroke-width:0.194314" />
  <path
     fill="#f75d57"
     d="m 168.82754,18.430577 c 0.28642,0.493171 0.69274,0.781145 1.22574,0.962635 -1.09011,0.972738 -2.0916,2.08344 -3.0863,3.153335 -0.20675,-0.627053 -0.5742,-0.879467 -1.18065,-1.128384 1.14918,-0.820202 1.93265,-2.121332 3.04121,-2.987586 z"
     id="path42"
     style="opacity:0.284946;stroke-width:0.194314" />
  <path
     fill="#e03442"
     d="m 164.84876,21.418163 c 0.36123,-0.119504 0.58197,-0.139518 0.93757,0 0.60645,0.248917 0.9739,0.501331 1.18065,1.128384 0.92591,2.733034 -4.18962,2.879936 -3.15839,0 0.0635,-0.560402 0.47743,-1.025009 1.04017,-1.128384 z"
     id="path44"
     style="opacity:0.284946;stroke-width:0.194314" />
  <path
     fill="#306eb1"
     d="m 172.10816,18.19021 c 0.2425,0.329169 0.61131,0.538251 0.8406,0.883548 0.64202,-0.198395 1.06563,-0.26932 1.70103,0 0.4955,0.400094 0.72072,0.702059 0.83517,1.345823 -0.38863,2.124052 -2.65415,2.460022 -3.3768,-0.180713 -0.37308,-0.288557 -0.64163,-0.701475 -0.93232,-1.068341 0.33868,-0.309932 0.61597,-0.652314 0.93232,-0.980317 z"
     id="path46"
     style="opacity:0.284946;stroke-width:0.194314" />
  <path
     fill="#f75d57"
     d="m 172.10816,18.19021 c 0.2425,0.329169 0.61131,0.538251 0.8406,0.883548 -0.38669,0.266794 -0.74558,0.69584 -0.8406,1.16511 -0.37308,-0.288557 -0.64163,-0.701475 -0.93232,-1.068341 0.33868,-0.309932 0.61597,-0.652314 0.93232,-0.980317 z"
     id="path48"
     style="opacity:0.284946;stroke-width:0.194314" />
  <path
     fill="#f7d15d"
     d="m 180.40383,12.794484 c 0.79747,-2.434761 3.89174,-1.063872 3.05832,0.900648 -0.36201,0.853041 -1.2067,1.033171 -2.03953,0.933681 -0.64629,0.448284 -1.21058,1.10565 -1.76748,1.662944 l -2.16758,2.16583 c -0.65289,0.664167 -1.29589,1.353594 -2.0026,1.961994 -0.11445,-0.643764 -0.33967,-0.945729 -0.83517,-1.345823 1.19737,-1.322699 2.75674,-2.747413 4.03708,-4.050292 0.56895,-0.578863 1.66392,-1.350875 1.71696,-2.228982 z"
     id="path50"
     style="opacity:0.284946;stroke-width:0.194314" />
  <path
     fill="#13d7b9"
     d="m 158.94101,19.073758 c 0.3589,0.430212 0.68516,0.680878 1.21195,0.875776 l -1.59786,1.60426 c -0.2526,0.253193 -0.54058,0.50172 -0.77337,0.77104 0.376,0.481512 0.45607,1.117892 0.7145,1.659058 1.11148,2.3275 2.86983,4.85009 5.31236,5.944081 -0.11192,0.06529 -0.1879,0.08239 -0.31614,0.09988 -1.51586,0.205973 -5.01176,1.697338 -6.67044,2.245304 -1.33766,-1.216214 -3.17995,-3.41294 -3.98636,-5.017395 0.10335,-0.291083 0.56352,-0.61656 0.80563,-0.805434 -0.57575,-0.147096 -0.96322,-0.485009 -1.30463,-0.957193 -0.38998,-1.371666 0.49939,-2.085967 1.73795,-2.362671 0.13797,0.09094 0.27729,0.171775 0.4236,0.248917 0.33715,-0.02254 2.11571,-1.803433 2.32381,-2.341878 0.32393,-0.436624 1.65906,-1.707831 2.119,-1.963743 z"
     id="path52"
     style="opacity:0.284946;stroke-width:0.194314" />
  <defs
     id="defs59">
    <linearGradient
       id="gradient_0"
       gradientUnits="userSpaceOnUse"
       x1="204.44089"
       y1="197.87027"
       x2="164.4519"
       y2="223.67546">
      <stop
         offset="0"
         stop-color="#FFB53C"
         id="stop54" />
      <stop
         offset="1"
         stop-color="#FFE879"
         id="stop56" />
    </linearGradient>
    <linearGradient
       inkscape:collect="always"
       xlink:href="#gradient_0"
       id="linearGradient1189"
       gradientUnits="userSpaceOnUse"
       x1="204.44089"
       y1="197.87027"
       x2="164.4519"
       y2="223.67546"
       gradientTransform="matrix(2,0,0,2,-1480,0)" />
    <linearGradient
       inkscape:collect="always"
       xlink:href="#gradient_0"
       id="linearGradient1577"
       gradientUnits="userSpaceOnUse"
       x1="204.44089"
       y1="197.87027"
       x2="164.4519"
       y2="223.67546"
       gradientTransform="matrix(0.19431451,0,0,0.19431451,120.45682,-18.009224)" />
  </defs>
  <path
     fill="url(#gradient_0)"
     d="m 158.94101,19.073758 c 0.3589,0.430212 0.68516,0.680878 1.21195,0.875776 l -1.59786,1.60426 c -0.2526,0.253193 -0.54058,0.50172 -0.77337,0.77104 -0.75374,0.591882 -1.64467,1.287528 -2.25133,2.030976 0.0116,1.067176 -0.64162,2.523174 -1.88912,2.094516 -0.57575,-0.147096 -0.96322,-0.485009 -1.30463,-0.957193 -0.38998,-1.371666 0.49939,-2.085967 1.73795,-2.362671 0.13797,0.09094 0.27729,0.171775 0.4236,0.248917 0.33715,-0.02254 2.11571,-1.803433 2.32381,-2.341878 0.32393,-0.436625 1.65906,-1.707831 2.119,-1.963743 z"
     id="path61"
     style="opacity:0.284946;fill:url(#linearGradient1577);stroke-width:0.194314" />
  <text
     xml:space="preserve"
     style="font-weight:bold;font-size:45.0457px;line-height:1.25;font-family:Cantarell;-inkscape-font-specification:'Cantarell Bold';opacity:0.284946;fill:#895c99;fill-opacity:1;stroke-width:0.135137"
     x="47.337986"
     y="34.408962"
     id="text402"><tspan
       sodipodi:role="line"
       id="tspan400"
       x="47.337986"
       y="34.408962"
       style="stroke-width:0.135137">mics</tspan></text>
  <g
     id="g1211"
     transform="matrix(0.09715726,0,0,0.09715726,120.45683,-18.009226)"
     style="opacity:0.284946">
    <path
       fill="#33b18e"
       d="m -796.41,444.184 9.282,2.474 c -0.644,1.614 -1.076,3.104 -1.372,4.818 -3.22,-0.662 -6.378,-2.336 -9.33,-3.724 -0.364,-1.714 0.334,-2.34 1.42,-3.568 z"
       id="path1085"
       style="stroke-width:2" />
    <path
       fill="#f75d57"
       d="m -1206.754,471.67 c 1.322,2.394 9.568,8.858 12.038,10.652 -5.688,3.66 -7.588,8.424 -9.146,14.7 -3.594,-4.566 -8.514,-8.764 -13.032,-12.4 4.806,-1.45 8.346,-8.688 10.14,-12.952 z"
       id="path1087"
       style="stroke-width:2" />
    <path
       fill="#ff894a"
       d="m -1151.874,447.752 c 3.514,4.86 7.502,8.338 13.428,9.852 -2.492,1.944 -7.228,5.294 -8.292,8.29 -8.558,7.974 -17.93,15.838 -24.228,25.78 -2.412,-4.474 -4.782,-10.742 -10.466,-11.594 6.356,-9.464 18.648,-19.878 26.616,-28.604 z"
       id="path1089"
       style="stroke-width:2" />
    <path
       fill="#13d7b9"
       d="m -774.206,447.752 c 12.504,-17.034 37.618,6.096 23.156,21.056 -9.93,10.268 -24.062,2.64 -27.178,-11.204 -3.304,-2.288 -6.746,-4.208 -10.272,-6.128 0.296,-1.714 0.728,-3.204 1.372,-4.818 4.456,1.228 8.334,1.342 12.922,1.094 z"
       id="path1091"
       style="stroke-width:2" />
    <path
       fill="#e03442"
       d="m -1181.432,480.08 c 5.684,0.852 8.054,7.12 10.466,11.594 1.354,2.438 0.698,7.644 -0.032,10.186 -5.024,17.486 -29.392,15.024 -32.864,-4.838 1.558,-6.276 3.458,-11.04 9.146,-14.7 4.312,-2.252 8.552,-2.168 13.284,-2.242 z"
       id="path1093"
       style="stroke-width:2" />
    <path
       fill="#13d7b9"
       d="m -1169.51,384.968 c 2.672,0.6 31.904,33.272 35.524,38.466 -12.748,2.848 -21.902,10.2 -17.888,24.318 l -2.942,3.724 c -6.65,-7.958 -13.814,-55.876 -14.694,-66.508 z"
       id="path1095"
       style="stroke-width:2" />
    <path
       fill="#e03442"
       d="m -1216.894,484.622 c -28.454,9.014 -30.424,-36.054 -5.854,-33.658 10.79,1.052 17.034,10.35 15.994,20.706 -1.794,4.264 -5.334,11.502 -10.14,12.952 z"
       id="path1097"
       style="stroke-width:2" />
    <path
       fill="#895c99"
       d="m -1169.51,384.968 c -0.464,-4.42 -0.054,-9.076 -0.022,-13.526 1.148,-158.95 189.238,-241.7408 308.636,-144.092 64.488,52.74 93.362,137.554 64.486,216.834 -1.086,1.228 -1.784,1.854 -1.42,3.568 -5.616,15.828 -13.794,30.592 -24.012,43.922 -6.46,6.076 -29.874,29.488 -35.156,36.054 -7.768,5.552 -15.12,11.568 -23.222,16.656 -69.6,43.7 -167.69,31.64 -225.488,-26.848 -13.768,-12.518 -32.73,-35.128 -41.03,-51.642 1.064,-2.996 5.8,-6.346 8.292,-8.29 -5.926,-1.514 -9.914,-4.992 -13.428,-9.852 -4.014,-14.118 5.14,-21.47 17.888,-24.318 -3.62,-5.194 -32.852,-37.866 -35.524,-38.466 z m 306.52,-67.918 c -0.546,9.038 -11.816,16.984 -17.672,22.942 -13.178,13.41 -29.228,28.074 -41.552,41.688 -6.54,-2.772 -10.9,-2.042 -17.508,0 -2.36,-3.554 -6.156,-5.706 -8.652,-9.094 -3.256,3.376 -6.11,6.9 -9.596,10.09 -3.858,1.52 -7.934,1.042 -11.554,2.292 -5.486,-1.868 -9.668,-4.832 -12.616,-9.908 -11.41,8.916 -19.474,22.308 -31.302,30.75 -3.66,-1.436 -5.932,-1.23 -9.65,0 -5.792,1.064 -10.052,5.846 -10.706,11.614 -2.806,-4.728 -22.786,-23.42 -27.714,-26.73 -3.242,-0.47 -6.708,-0.866 -9.912,0 -5.422,-2.006 -8.78,-4.586 -12.474,-9.014 -4.734,2.634 -18.476,15.718 -21.81,20.212 -2.142,5.542 -20.448,23.872 -23.918,24.104 -1.506,-0.794 -2.94,-1.626 -4.36,-2.562 -12.748,2.848 -21.902,10.2 -17.888,24.318 3.514,4.86 7.502,8.338 13.428,9.852 -2.492,1.944 -7.228,5.294 -8.292,8.29 8.3,16.514 27.262,39.124 41.03,51.642 17.072,-5.64 53.054,-20.99 68.656,-23.11 1.32,-0.18 2.102,-0.356 3.254,-1.028 26.65,17.868 65.94,21.616 96.144,12.362 69.238,-21.212 106.158,-101.676 85.15,-169.83 8.572,1.024 17.266,-0.83 20.992,-9.61 8.578,-20.22 -23.27,-34.33 -31.478,-9.27 z m -242.718,82.776 v 2.066 c 3.334,-4.494 17.076,-17.578 21.81,-20.212 3.694,4.428 7.052,7.008 12.474,9.014 3.204,-0.866 6.67,-0.47 9.912,0 4.928,3.31 24.908,22.002 27.714,26.73 0.654,-5.768 4.914,-10.55 10.706,-11.614 3.718,-1.23 5.99,-1.436 9.65,0 11.828,-8.442 19.892,-21.834 31.302,-30.75 2.948,5.076 7.13,8.04 12.616,9.908 3.62,-1.25 7.696,-0.772 11.554,-2.292 3.486,-3.19 6.34,-6.714 9.596,-10.09 2.496,3.388 6.292,5.54 8.652,9.094 6.608,-2.042 10.968,-2.772 17.508,0 12.324,-13.614 28.374,-28.278 41.552,-41.688 5.856,-5.958 17.126,-13.904 17.672,-22.942 -85.828,-146.0968 -272.852,-50.47 -242.718,82.776 z"
       id="path1099"
       style="stroke-width:2" />
    <path
       fill="#306eb1"
       d="m -1129.626,425.996 c 3.196,-8.316 16.04,-21.076 23.918,-26.17 v 2.066 c -2.142,5.542 -20.448,23.872 -23.918,24.104 z"
       id="path1101"
       style="stroke-width:2" />
    <path
       fill="#74ebf1"
       d="m -827.076,420.05 c 11.764,-0.718 17.926,6.536 18.99,17.812 -2.66,6.458 -6.856,11.496 -13.756,13.614 -19.242,0.692 -24.74,-25.978 -5.234,-31.426 z"
       id="path1103"
       style="stroke-width:2" />
    <path
       fill="#f75d57"
       d="m -1061.512,390.694 c 3.772,-3.814 6.77,-7.954 10.236,-11.99 10.302,6.994 20.198,22.468 28.184,27.106 -5.792,1.064 -10.052,5.846 -10.706,11.614 -2.806,-4.728 -22.786,-23.42 -27.714,-26.73 z"
       id="path1105"
       style="stroke-width:2" />
    <path
       fill="#e03442"
       d="m -1083.898,381.68 c -11.042,-38.466 42.478,-31.094 32.622,-2.976 -3.466,4.036 -6.464,8.176 -10.236,11.99 -3.242,-0.47 -6.708,-0.866 -9.912,0 -5.422,-2.006 -8.78,-4.586 -12.474,-9.014 z"
       id="path1107"
       style="stroke-width:2" />
    <path
       fill="#e03442"
       d="m -982.14,375.06 c -14.242,-28.35 38.646,-39.396 33.766,-2.474 -3.256,3.376 -6.11,6.9 -9.596,10.09 -3.858,1.52 -7.934,1.042 -11.554,2.292 -5.486,-1.868 -9.668,-4.832 -12.616,-9.908 z"
       id="path1109"
       style="stroke-width:2" />
    <path
       fill="#f75d57"
       d="m -982.14,375.06 c 2.948,5.076 7.13,8.04 12.616,9.908 -11.22,10.012 -21.528,21.444 -31.766,32.456 -2.128,-6.454 -5.91,-9.052 -12.152,-11.614 11.828,-8.442 19.892,-21.834 31.302,-30.75 z"
       id="path1111"
       style="stroke-width:2" />
    <path
       fill="#e03442"
       d="m -1023.092,405.81 c 3.718,-1.23 5.99,-1.436 9.65,0 6.242,2.562 10.024,5.16 12.152,11.614 9.53,28.13 -43.122,29.642 -32.508,0 0.654,-5.768 4.914,-10.55 10.706,-11.614 z"
       id="path1113"
       style="stroke-width:2" />
    <path
       fill="#306eb1"
       d="m -948.374,372.586 c 2.496,3.388 6.292,5.54 8.652,9.094 6.608,-2.042 10.968,-2.772 17.508,0 5.1,4.118 7.418,7.226 8.596,13.852 -4,21.862 -27.318,25.32 -34.756,-1.86 -3.84,-2.97 -6.604,-7.22 -9.596,-10.996 3.486,-3.19 6.34,-6.714 9.596,-10.09 z"
       id="path1115"
       style="stroke-width:2" />
    <path
       fill="#f75d57"
       d="m -948.374,372.586 c 2.496,3.388 6.292,5.54 8.652,9.094 -3.98,2.746 -7.674,7.162 -8.652,11.992 -3.84,-2.97 -6.604,-7.22 -9.596,-10.996 3.486,-3.19 6.34,-6.714 9.596,-10.09 z"
       id="path1117"
       style="stroke-width:2" />
    <path
       fill="#f7d15d"
       d="m -862.99,317.05 c 8.208,-25.06 40.056,-10.95 31.478,9.27 -3.726,8.78 -12.42,10.634 -20.992,9.61 -6.652,4.614 -12.46,11.38 -18.192,17.116 l -22.31,22.292 c -6.72,6.836 -13.338,13.932 -20.612,20.194 -1.178,-6.626 -3.496,-9.734 -8.596,-13.852 12.324,-13.614 28.374,-28.278 41.552,-41.688 5.856,-5.958 17.126,-13.904 17.672,-22.942 z"
       id="path1119"
       style="stroke-width:2" />
    <path
       fill="#13d7b9"
       d="m -1083.898,381.68 c 3.694,4.428 7.052,7.008 12.474,9.014 l -16.446,16.512 c -2.6,2.606 -5.564,5.164 -7.96,7.936 3.87,4.956 4.694,11.506 7.354,17.076 11.44,23.956 29.538,49.92 54.678,61.18 -1.152,0.672 -1.934,0.848 -3.254,1.028 -15.602,2.12 -51.584,17.47 -68.656,23.11 -13.768,-12.518 -32.73,-35.128 -41.03,-51.642 1.064,-2.996 5.8,-6.346 8.292,-8.29 -5.926,-1.514 -9.914,-4.992 -13.428,-9.852 -4.014,-14.118 5.14,-21.47 17.888,-24.318 1.42,0.936 2.854,1.768 4.36,2.562 3.47,-0.232 21.776,-18.562 23.918,-24.104 3.334,-4.494 17.076,-17.578 21.81,-20.212 z"
       id="path1121"
       style="stroke-width:2" />
    <path
       fill="url(#gradient_0)"
       d="m -1083.898,381.68 c 3.694,4.428 7.052,7.008 12.474,9.014 l -16.446,16.512 c -2.6,2.606 -5.564,5.164 -7.96,7.936 -7.758,6.092 -16.928,13.252 -23.172,20.904 0.12,10.984 -6.604,25.97 -19.444,21.558 -5.926,-1.514 -9.914,-4.992 -13.428,-9.852 -4.014,-14.118 5.14,-21.47 17.888,-24.318 1.42,0.936 2.854,1.768 4.36,2.562 3.47,-0.232 21.776,-18.562 23.918,-24.104 3.334,-4.494 17.076,-17.578 21.81,-20.212 z"
       id="path1123"
       style="fill:url(#linearGradient1189);stroke-width:2" />
  </g>
</svg>
